<?xml version="1.0" encoding="utf-8"?>
<!-- Generator: Adobe Illustrator 24.0.1, SVG Export Plug-In . SVG Version: 6.00 Build 0)  -->
<svg version="1.1" id="图层_1" xmlns="http://www.w3.org/2000/svg" xmlns:xlink="http://www.w3.org/1999/xlink" x="0px" y="0px"
	 viewBox="0 0 21 21" style="enable-background:new 0 0 21 21;" xml:space="preserve">
<style type="text/css">
	.st0{fill:#4C83E5;}
</style>
<g>
	<path class="st0" d="M18.9,0H2.1C0.7,0,0,0.7,0,2.1v16.8C0,20.3,0.7,21,2.1,21h16.8c1.4,0,2.1-0.7,2.1-2.1V2.1
		C21,0.7,20.3,0,18.9,0z M15.3,6.4l-2.2,7.2c0,0,0,0.1-0.1,0.1s-0.1,0-0.1,0s-0.1,0-0.1,0s-0.1,0-0.2,0s-0.1,0-0.2,0s-0.1,0-0.1,0
		s-0.1,0-0.1,0s0,0-0.1-0.1l-1.8-6.2h0l-1.6,6.2c0,0,0,0.1,0,0.1s-0.1,0-0.1,0s-0.1,0-0.1,0s-0.1,0-0.2,0c-0.1,0-0.1,0-0.2,0
		s-0.1,0-0.1,0s-0.1,0-0.1,0s0,0-0.1-0.1L5.7,6.4c0-0.1,0-0.1,0-0.1s0-0.1,0-0.1s0.1,0,0.1,0s0.1,0,0.2,0s0.2,0,0.2,0s0.1,0,0.1,0
		s0,0,0.1,0s0,0,0,0.1L8.3,13h0l1.8-6.7c0,0,0-0.1,0-0.1s0,0,0.1,0s0.1,0,0.1,0s0.1,0,0.2,0c0.1,0,0.1,0,0.2,0s0.1,0,0.1,0
		s0,0,0.1,0s0,0,0,0.1l1.9,6.7h0l1.9-6.7c0,0,0-0.1,0-0.1s0,0,0.1,0s0.1,0,0.1,0s0.1,0,0.2,0c0.1,0,0.2,0,0.2,0s0.1,0,0.1,0
		s0,0,0,0.1S15.4,6.4,15.3,6.4z"/>
</g>
</svg>
