<?xml version="1.0" encoding="utf-8"?>
<!-- Generator: Adobe Illustrator 24.0.1, SVG Export Plug-In . SVG Version: 6.00 Build 0)  -->
<svg version="1.1" id="图层_1" xmlns="http://www.w3.org/2000/svg" xmlns:xlink="http://www.w3.org/1999/xlink" x="0px" y="0px"
	 viewBox="0 0 21 21" style="enable-background:new 0 0 21 21;" xml:space="preserve">
<style type="text/css">
	.st0{fill:#F4BDBD;}
	.st1{fill:#E86060;}
</style>
<path class="st0" d="M14.7,0l4.2,4.2h-3.1c-0.6,0-1.1-0.5-1.1-1.1l0,0C14.7,3.1,14.7,0,14.7,0z"/>
<g>
	<path class="st1" d="M10.3,10.3c0.1-0.4,0.2-0.8,0.3-1.2c-0.1-0.5-0.2-0.8-0.4-0.9h-0.1C10,8.2,9.8,8.7,10,9.5
		C10.1,9.8,10.2,10,10.3,10.3z"/>
	<path class="st1" d="M10.7,12.4c-0.1-0.2-0.3-0.5-0.4-0.8c-0.1,0.3-0.2,0.6-0.4,0.9v0.1c-0.1,0.2-0.2,0.4-0.3,0.6
		c0.5-0.2,1-0.3,1.4-0.4C10.9,12.7,10.9,12.6,10.7,12.4L10.7,12.4z"/>
	<path class="st1" d="M6.8,15.4c0,0.1,0.1,0.1,0.2,0.1c0.5,0,1-0.6,1.4-1.3c-0.3,0.1-0.6,0.3-1,0.4C7,14.9,6.8,15.2,6.8,15.4z"/>
	<path class="st1" d="M14.8,0H3.2c-0.6,0-1.1,0.5-1,1.1v18.8c0,0.6,0.4,1.1,1,1.1h14.7c0.6,0,1.1-0.5,1.1-1.1V4.2L14.8,0z M13.8,14
		c-0.3,0.2-0.6,0.2-1,0.2c-0.6-0.2-1.1-0.5-1.6-0.9C10.5,13.5,9.7,13.7,9,14c-0.4,1.1-1.1,2-1.9,2c-0.4,0-0.7-0.2-0.7-0.5
		c0-0.6,0.3-1.1,0.8-1.3c0.5-0.3,1.1-0.5,1.6-0.7c0.2-0.4,0.4-0.8,0.5-1.1v-0.1c0.2-0.5,0.4-0.9,0.5-1.2c-0.2-0.4-0.4-0.9-0.5-1.4
		C9.2,8.7,9.5,8,9.9,7.8c0.2-0.1,0.5-0.1,0.7,0C10.9,8,11,8.5,11,9.2c-0.1,0.6-0.2,1.2-0.5,1.8c0.2,0.4,0.5,0.8,0.6,1.1l0.1,0.1
		c0.1,0.1,0.2,0.2,0.3,0.4c0.5-0.1,0.9-0.2,1.4-0.2c0.5-0.1,1.1,0.2,1.3,0.7C14.3,13.4,14.2,13.8,13.8,14z"/>
	<path class="st1" d="M13,12.9c-0.4,0-0.7,0.1-1,0.2c0.3,0.3,0.7,0.4,1.1,0.5c0.2,0,0.4,0,0.5-0.1c0.1-0.1,0.2-0.2,0.2-0.3
		C13.6,12.9,13.3,12.8,13,12.9z"/>
</g>
</svg>
