<?xml version="1.0" encoding="utf-8"?>
<!-- Generator: Adobe Illustrator 24.0.1, SVG Export Plug-In . SVG Version: 6.00 Build 0)  -->
<svg version="1.1" id="图层_1" xmlns="http://www.w3.org/2000/svg" xmlns:xlink="http://www.w3.org/1999/xlink" x="0px" y="0px"
	 viewBox="0 0 21 21" style="enable-background:new 0 0 21 21;" xml:space="preserve">
<style type="text/css">
	.st0{fill:#00D1A5;}
</style>
<g>
	<path class="st0" d="M18.9,0H2.1C0.7,0,0,0.7,0,2.1v16.8C0,20.3,0.7,21,2.1,21h16.8c1.4,0,2.1-0.7,2.1-2.1V2.1
		C21,0.7,20.3,0,18.9,0z M13.1,13.8c0,0-0.1,0-0.1,0s-0.1,0-0.2,0s-0.2,0-0.2,0s-0.1,0-0.1,0s-0.1,0-0.1,0s0,0,0-0.1l-1.8-3.2
		l-1.9,3.2c0,0,0,0.1-0.1,0.1s0,0-0.1,0s-0.1,0-0.1,0s-0.1,0-0.2,0c-0.1,0-0.2,0-0.2,0s-0.1,0-0.1,0s0,0,0-0.1s0-0.1,0.1-0.1
		l2.2-3.6L7.9,6.4c0-0.1-0.1-0.1-0.1-0.1s0-0.1,0-0.1s0.1,0,0.1,0s0.1,0,0.2,0c0.1,0,0.2,0,0.2,0s0.1,0,0.1,0s0.1,0,0.1,0
		s0,0,0.1,0.1l1.8,3l1.8-3c0,0,0-0.1,0-0.1s0,0,0.1,0s0.1,0,0.1,0s0.1,0,0.2,0s0.2,0,0.2,0s0.1,0,0.1,0s0,0,0,0.1s0,0.1,0,0.1
		l-2.1,3.5l2.2,3.6C13.1,13.6,13.2,13.6,13.1,13.8C13.2,13.7,13.1,13.7,13.1,13.8z"/>
</g>
</svg>
