<?xml version="1.0" standalone="no"?><!DOCTYPE svg PUBLIC "-//W3C//DTD SVG 1.1//EN" "http://www.w3.org/Graphics/SVG/1.1/DTD/svg11.dtd"><svg t="1610436187545" class="icon" viewBox="0 0 1024 1024" version="1.1" xmlns="http://www.w3.org/2000/svg" p-id="12253" xmlns:xlink="http://www.w3.org/1999/xlink" width="21" height="21"><defs><style type="text/css"></style></defs><path d="M434.641564 647.870155h147.096741v71.860543H434.641564z" fill="#1F96F4" p-id="12254"></path><path d="M994.079726 28.02822A95.745862 95.745862 0 0 0 926.310886 0.000051H618.359051v72.934615H508.752543v70.735325h109.606508v72.985761H508.752543v70.735324h109.606508v72.985762H508.752543v70.735324h109.606508v324.523234a33.449676 33.449676 0 0 1-11.405623 25.266269 35.802406 35.802406 0 0 1-25.010538 10.689576H434.743856a32.98936 32.98936 0 0 1-25.061684-10.689576 35.086358 35.086358 0 0 1-10.229258-25.266269V504.149069h109.453068V431.214454H399.299475V360.427984h109.453068V287.493369h-109.453068V216.758044h109.453068V143.669991h-109.453068V72.934666h109.453068V0.000051H95.797367A95.848155 95.848155 0 0 0 0.000359 95.797059v830.51352a95.694716 95.694716 0 0 0 95.797008 95.950447h830.513519a95.694716 95.694716 0 0 0 95.797009-95.797008V95.797059a95.950447 95.950447 0 0 0-28.028169-67.768839z" fill="#1F96F4" p-id="12255"></path></svg>